<svg t="1624008398346" class="icon" viewBox="0 0 1572 1024" version="1.1" xmlns="http://www.w3.org/2000/svg" p-id="549" width="200" height="200"><path d="M1458.452842 547.706298h-256.078648C1194.194777 325.91828 1011.10169 147.858679 787.111521 147.858679s-407.083257 178.059601-415.262673 400.162212H115.7702c-8.808602 0-15.729647 6.921045-15.729647 15.729647s6.921045 15.729647 15.729647 15.729646h1342.682642c8.808602 0 15.729647-6.921045 15.729646-15.729646s-7.235637-16.04424-15.729646-16.04424zM787.111521 179.317972c206.687558 0 375.623963 163.902919 383.803379 368.702919h-767.606759c8.179416-204.8 177.115822-368.702919 383.80338-368.702919zM1272.528418 647.432258H301.380031c-8.808602 0-15.729647 6.921045-15.729647 15.729647s6.921045 15.729647 15.729647 15.729646h971.148387c8.808602 0 15.729647-6.921045 15.729647-15.729646s-6.921045-15.729647-15.729647-15.729647zM1060.807373 746.843625H513.101075c-8.808602 0-15.729647 6.921045-15.729646 15.729647s6.921045 15.729647 15.729646 15.729647h547.706298c8.808602 0 15.729647-6.921045 15.729647-15.729647s-6.921045-15.729647-15.729647-15.729647zM922.701075 846.569585H651.207373c-8.808602 0-15.729647 6.921045-15.729646 15.729647s6.921045 15.729647 15.729646 15.729647h271.493702c8.808602 0 15.729647-6.921045 15.729647-15.729647s-6.921045-15.729647-15.729647-15.729647z" p-id="550"></path></svg>